<svg width="20" height="20" viewBox="0 0 20 20" fill="none" xmlns="http://www.w3.org/2000/svg">
<g filter="url(#filter0_d)">
<path fill-rule="evenodd" clip-rule="evenodd" d="M11.4262 6.00003L15.7046 1.72158C16.0985 1.32775 16.0985 0.689213 15.7046 0.295433C15.3108 -0.0984027 14.6723 -0.0984027 14.2785 0.295433L9.99998 4.57394L5.72148 0.295377C5.32765 -0.098459 4.68917 -0.098459 4.29533 0.295377C3.90156 0.689213 3.90156 1.32775 4.29533 1.72153L8.57383 5.99997L4.29533 10.2785C3.90156 10.6723 3.90156 11.3108 4.29533 11.7046C4.68917 12.0985 5.32765 12.0985 5.72148 11.7046L9.99998 7.42612L14.2785 11.7046C14.6723 12.0985 15.3108 12.0985 15.7046 11.7046C16.0985 11.3108 16.0985 10.6723 15.7046 10.2785L11.4262 6.00003Z" fill="#292929"/>
</g>
<defs>
<filter id="filter0_d" x="0" y="0" width="20" height="20" filterUnits="userSpaceOnUse" color-interpolation-filters="sRGB">
<feFlood flood-opacity="0" result="BackgroundImageFix"/>
<feColorMatrix in="SourceAlpha" type="matrix" values="0 0 0 0 0 0 0 0 0 0 0 0 0 0 0 0 0 0 127 0"/>
<feOffset dy="4"/>
<feGaussianBlur stdDeviation="2"/>
<feColorMatrix type="matrix" values="0 0 0 0 0 0 0 0 0 0 0 0 0 0 0 0 0 0 0.25 0"/>
<feBlend mode="normal" in2="BackgroundImageFix" result="effect1_dropShadow"/>
<feBlend mode="normal" in="SourceGraphic" in2="effect1_dropShadow" result="shape"/>
</filter>
</defs>
</svg>
